<svg id="Ebene_1" data-name="Ebene 1" xmlns="http://www.w3.org/2000/svg" viewBox="0 0 1191.89 1124.9"><path d="M56.9,561.9A50.25,50.25,0,1,1,6.6,612.1a50.32,50.32,0,0,1,50.3-50.2m74.2,172.6a91.8,91.8,0,1,1-91.7,91.8A91.8,91.8,0,0,1,131.1,734.5ZM332.2,913.7a91.8,91.8,0,1,1-91.8,91.8A91.71,91.71,0,0,1,332.2,913.7Zm286,82.8a67.7,67.7,0,1,1-67.7,67.7A67.69,67.69,0,0,1,618.2,996.5ZM887.1,800.1a91.8,91.8,0,1,1-91.7,91.8A91.8,91.8,0,0,1,887.1,800.1ZM764.6,40.8a78.75,78.75,0,1,1-78.7,78.7A78.74,78.74,0,0,1,764.6,40.8ZM469.8,7a63.35,63.35,0,1,1-63.3,63.3A63.31,63.31,0,0,1,469.8,7ZM212,146.8A50.25,50.25,0,1,1,161.7,197,50.25,50.25,0,0,1,212,146.8Zm749.3,68.5a96.5,96.5,0,1,1-96.5,96.5A96.56,96.56,0,0,1,961.3,215.3ZM69.9,371.9a39.3,39.3,0,1,1-39.3,39.3A39.39,39.39,0,0,1,69.9,371.9Z" transform="translate(-6.6 -7)" style="fill:#97c447;fill-rule:evenodd"/><g style="isolation:isolate"><path d="M457.52,531.12q0,32.6-20.88,53.14T382.3,604.79H334.6a19.14,19.14,0,0,1-13.27-4.94,16,16,0,0,1-5.51-12.42V419.76a16,16,0,0,1,5.51-12.42,19.19,19.19,0,0,1,13.27-4.94h47.7q33.45,0,54.34,20.68t20.88,53.14Zm-104.15-94v133H382.3q17.51,0,27.52-10.3t10-28.65v-54.9q0-18.35-10-28.72T382.3,437.12Z" transform="translate(-6.6 -7)" style="fill:#eaeaea"/><path d="M522.73,429.36a20.28,20.28,0,0,1-26.53,0,16.75,16.75,0,0,1,0-24.84,20.28,20.28,0,0,1,26.53,0,16.77,16.77,0,0,1,0,24.84Zm4.09,161A14.75,14.75,0,0,1,522,601.69q-4.86,4.51-12.49,4.51A17.65,17.65,0,0,1,497,601.69a14.79,14.79,0,0,1-4.87-11.29V476.22A14.87,14.87,0,0,1,497,464.86a19.1,19.1,0,0,1,24.84,0,14.87,14.87,0,0,1,4.94,11.36Z" transform="translate(-6.6 -7)" style="fill:#eaeaea"/><path d="M638,590.4h-3a26.1,26.1,0,0,1-6.91,6.63q-9.6,6.35-23.43,6.35-20,0-33.87-15.1T557,549.89v-39.1q0-23.28,13.84-38.31t33.87-15a41.94,41.94,0,0,1,23.43,6.63,28.79,28.79,0,0,1,6.91,6.35h3a18.88,18.88,0,0,1,3.67-4.94q5.22-5.22,13.54-5.22a17.53,17.53,0,0,1,12.42,4.59,14.84,14.84,0,0,1,4.94,11.36V615q0,22.15-16.79,37.83t-42.34,15.66a68.32,68.32,0,0,1-21.1-3.17,52.48,52.48,0,0,1-16.09-8,43.85,43.85,0,0,1-9.88-10.3q-3.6-5.43-3.6-10.37,0-6.64,4-10.52c2.64-2.59,6.16-3.88,10.59-3.88a17,17,0,0,1,7.83,1.77,26,26,0,0,1,6.14,4.3c1.79,1.69,3.69,3.41,5.72,5.15a25.09,25.09,0,0,0,8,4.38,33.62,33.62,0,0,0,11.29,1.76,20.19,20.19,0,0,0,15.31-6.92Q638,625.67,638,615Zm-39.66-22.8a23.32,23.32,0,0,0,33,0q6.65-6.84,6.64-17.71v-39.1q0-10.86-6.64-17.71a23.35,23.35,0,0,0-33,0q-6.64,6.85-6.63,17.71v39.1Q591.75,560.77,598.38,567.6Z" transform="translate(-6.6 -7)" style="fill:#eaeaea"/><path d="M736.55,429.36a20.28,20.28,0,0,1-26.53,0,16.75,16.75,0,0,1,0-24.84,20.28,20.28,0,0,1,26.53,0,16.77,16.77,0,0,1,0,24.84Zm4.09,161a14.75,14.75,0,0,1-4.87,11.29q-4.86,4.51-12.49,4.51a17.65,17.65,0,0,1-12.49-4.51,14.79,14.79,0,0,1-4.87-11.29V476.22a14.87,14.87,0,0,1,4.94-11.36,19.1,19.1,0,0,1,24.84,0,14.84,14.84,0,0,1,4.94,11.36Z" transform="translate(-6.6 -7)" style="fill:#eaeaea"/><path d="M814.17,561.46q0,14.4,11.58,14.4h20.32a16.35,16.35,0,0,1,11.29,4,13.42,13.42,0,0,1,4.52,10.52,13.2,13.2,0,0,1-4.52,10.44,16.54,16.54,0,0,1-11.29,3.95H824.34q-19.49,0-32.11-12.35t-12.63-31V490.61h-3a16.78,16.78,0,0,1-11.36-3.95,13.09,13.09,0,0,1-4.59-10.44,13.32,13.32,0,0,1,4.59-10.52,16.63,16.63,0,0,1,11.36-4h3V440.09a15,15,0,0,1,4.87-11.37,17.3,17.3,0,0,1,12.34-4.58,17.56,17.56,0,0,1,12.42,4.58,14.87,14.87,0,0,1,4.94,11.37v21.59h24.56a16.6,16.6,0,0,1,11.36,4,13.32,13.32,0,0,1,4.59,10.52,13.09,13.09,0,0,1-4.59,10.44,16.74,16.74,0,0,1-11.36,3.95H814.17Z" transform="translate(-6.6 -7)" style="fill:#eaeaea"/><path d="M987.49,590.4a14.75,14.75,0,0,1-4.87,11.29,17.45,17.45,0,0,1-12.35,4.51q-8.76,0-13.69-4.94a16.16,16.16,0,0,1-3.67-5.08h-3a27.5,27.5,0,0,1-7.77,6.64,46.24,46.24,0,0,1-24,6.35q-18.5,0-30.91-12.71t-12.42-32.17q0-21.31,14.19-33.74t40.71-12.42h23.15V508q0-9.74-6-15.73t-15.74-6a23.14,23.14,0,0,0-9,1.62,21.83,21.83,0,0,0-6.42,3.95q-2.53,2.32-5,4.73a21,21,0,0,1-6.07,4,19.75,19.75,0,0,1-8.25,1.63q-6.5,0-10.45-3.74a12.26,12.26,0,0,1-4-9.25q0-10.72,14.11-21.24t35-10.51q24.57,0,40.44,14.74T987.49,508Zm-34.58-46.3H928.35a18.92,18.92,0,0,0-13.41,5.15q-5.51,5.16-5.5,13.62t5.5,13.62a18.88,18.88,0,0,0,13.41,5.15,28.52,28.52,0,0,0,17.5-5.78,46,46,0,0,0,7.06-5.79Z" transform="translate(-6.6 -7)" style="fill:#eaeaea"/><path d="M1054,590.4a14.75,14.75,0,0,1-4.87,11.29,17.43,17.43,0,0,1-12.35,4.51,17.65,17.65,0,0,1-12.49-4.51,14.79,14.79,0,0,1-4.87-11.29V416.94a14.89,14.89,0,0,1,4.94-11.36,17.56,17.56,0,0,1,12.42-4.59,17.27,17.27,0,0,1,12.35,4.59,15,15,0,0,1,4.87,11.36Z" transform="translate(-6.6 -7)" style="fill:#eaeaea"/><path d="M1198.49,529.71a14.79,14.79,0,0,1-4.87,11.29,17.65,17.65,0,0,1-12.49,4.51h-63.51v10.17q0,10.86,6.63,17.71a22.05,22.05,0,0,0,16.51,6.84,36.72,36.72,0,0,0,11.93-1.76,26.4,26.4,0,0,0,8.32-4.38c2.12-1.74,4.07-3.45,5.86-5.15a25.36,25.36,0,0,1,6.28-4.3,17.84,17.84,0,0,1,8-1.77,12.74,12.74,0,0,1,9.24,3.81,12.39,12.39,0,0,1,3.88,9.18q0,12.14-14.68,22.72t-38.81,10.59q-24.71,0-41.28-15.74t-16.58-37.75V510.79q0-22,16.58-37.68t41.28-15.66q24.71,0,41.21,15.66t16.52,37.68Zm-34.58-11.58v-7.34q0-10.86-6.64-17.71a23.35,23.35,0,0,0-33,0q-6.64,6.85-6.63,17.71v7.34Z" transform="translate(-6.6 -7)" style="fill:#eaeaea"/></g><g style="isolation:isolate"><path d="M457.52,531.12q0,32.6-20.88,53.14T382.3,604.79H334.6a19.14,19.14,0,0,1-13.27-4.94,16,16,0,0,1-5.51-12.42V419.76a16,16,0,0,1,5.51-12.42,19.19,19.19,0,0,1,13.27-4.94h47.7q33.45,0,54.34,20.68t20.88,53.14Zm-104.15-94v133H382.3q17.51,0,27.52-10.3t10-28.65v-54.9q0-18.35-10-28.72T382.3,437.12Z" transform="translate(-6.6 -7)" style="fill:#0b5569"/><path d="M522.73,429.36a20.28,20.28,0,0,1-26.53,0,16.75,16.75,0,0,1,0-24.84,20.28,20.28,0,0,1,26.53,0,16.77,16.77,0,0,1,0,24.84Zm4.09,161A14.75,14.75,0,0,1,522,601.69q-4.86,4.51-12.49,4.51A17.65,17.65,0,0,1,497,601.69a14.79,14.79,0,0,1-4.87-11.29V476.22A14.87,14.87,0,0,1,497,464.86a19.1,19.1,0,0,1,24.84,0,14.87,14.87,0,0,1,4.94,11.36Z" transform="translate(-6.6 -7)" style="fill:#0b5569"/><path d="M638,590.4h-3a26.1,26.1,0,0,1-6.91,6.63q-9.6,6.35-23.43,6.35-20,0-33.87-15.1T557,549.89v-39.1q0-23.28,13.84-38.31t33.87-15a41.94,41.94,0,0,1,23.43,6.63,28.79,28.79,0,0,1,6.91,6.35h3a18.88,18.88,0,0,1,3.67-4.94q5.22-5.22,13.54-5.22a17.53,17.53,0,0,1,12.42,4.59,14.84,14.84,0,0,1,4.94,11.36V615q0,22.15-16.79,37.83t-42.34,15.66a68.32,68.32,0,0,1-21.1-3.17,52.48,52.48,0,0,1-16.09-8,43.85,43.85,0,0,1-9.88-10.3q-3.6-5.43-3.6-10.37,0-6.64,4-10.52c2.64-2.59,6.16-3.88,10.59-3.88a17,17,0,0,1,7.83,1.77,26,26,0,0,1,6.14,4.3c1.79,1.69,3.69,3.41,5.72,5.15a25.09,25.09,0,0,0,8,4.38,33.62,33.62,0,0,0,11.29,1.76,20.19,20.19,0,0,0,15.31-6.92Q638,625.67,638,615Zm-39.66-22.8a23.32,23.32,0,0,0,33,0q6.65-6.84,6.64-17.71v-39.1q0-10.86-6.64-17.71a23.35,23.35,0,0,0-33,0q-6.64,6.85-6.63,17.71v39.1Q591.75,560.77,598.38,567.6Z" transform="translate(-6.6 -7)" style="fill:#0b5569"/><path d="M736.55,429.36a20.28,20.28,0,0,1-26.53,0,16.75,16.75,0,0,1,0-24.84,20.28,20.28,0,0,1,26.53,0,16.77,16.77,0,0,1,0,24.84Zm4.09,161a14.75,14.75,0,0,1-4.87,11.29q-4.86,4.51-12.49,4.51a17.65,17.65,0,0,1-12.49-4.51,14.79,14.79,0,0,1-4.87-11.29V476.22a14.87,14.87,0,0,1,4.94-11.36,19.1,19.1,0,0,1,24.84,0,14.84,14.84,0,0,1,4.94,11.36Z" transform="translate(-6.6 -7)" style="fill:#0b5569"/><path d="M814.17,561.46q0,14.4,11.58,14.4h20.32a16.35,16.35,0,0,1,11.29,4,13.42,13.42,0,0,1,4.52,10.52,13.2,13.2,0,0,1-4.52,10.44,16.54,16.54,0,0,1-11.29,3.95H824.34q-19.49,0-32.11-12.35t-12.63-31V490.61h-3a16.78,16.78,0,0,1-11.36-3.95,13.09,13.09,0,0,1-4.59-10.44,13.32,13.32,0,0,1,4.59-10.52,16.63,16.63,0,0,1,11.36-4h3V440.09a15,15,0,0,1,4.87-11.37,17.3,17.3,0,0,1,12.34-4.58,17.56,17.56,0,0,1,12.42,4.58,14.87,14.87,0,0,1,4.94,11.37v21.59h24.56a16.6,16.6,0,0,1,11.36,4,13.32,13.32,0,0,1,4.59,10.52,13.09,13.09,0,0,1-4.59,10.44,16.74,16.74,0,0,1-11.36,3.95H814.17Z" transform="translate(-6.6 -7)" style="fill:#0b5569"/><path d="M987.49,590.4a14.75,14.75,0,0,1-4.87,11.29,17.45,17.45,0,0,1-12.35,4.51q-8.76,0-13.69-4.94a16.16,16.16,0,0,1-3.67-5.08h-3a27.5,27.5,0,0,1-7.77,6.64,46.24,46.24,0,0,1-24,6.35q-18.5,0-30.91-12.71t-12.42-32.17q0-21.31,14.19-33.74t40.71-12.42h23.15V508q0-9.74-6-15.73t-15.74-6a23.14,23.14,0,0,0-9,1.62,21.83,21.83,0,0,0-6.42,3.95q-2.53,2.32-5,4.73a21,21,0,0,1-6.07,4,19.75,19.75,0,0,1-8.25,1.63q-6.5,0-10.45-3.74a12.26,12.26,0,0,1-4-9.25q0-10.72,14.11-21.24t35-10.51q24.57,0,40.44,14.74T987.49,508Zm-34.58-46.3H928.35a18.92,18.92,0,0,0-13.41,5.15q-5.51,5.16-5.5,13.62t5.5,13.62a18.88,18.88,0,0,0,13.41,5.15,28.52,28.52,0,0,0,17.5-5.78,46,46,0,0,0,7.06-5.79Z" transform="translate(-6.6 -7)" style="fill:#0b5569"/><path d="M1054,590.4a14.75,14.75,0,0,1-4.87,11.29,17.43,17.43,0,0,1-12.35,4.51,17.65,17.65,0,0,1-12.49-4.51,14.79,14.79,0,0,1-4.87-11.29V416.94a14.89,14.89,0,0,1,4.94-11.36,17.56,17.56,0,0,1,12.42-4.59,17.27,17.27,0,0,1,12.35,4.59,15,15,0,0,1,4.87,11.36Z" transform="translate(-6.6 -7)" style="fill:#0b5569"/><path d="M1198.49,529.71a14.79,14.79,0,0,1-4.87,11.29,17.65,17.65,0,0,1-12.49,4.51h-63.51v10.17q0,10.86,6.63,17.71a22.05,22.05,0,0,0,16.51,6.84,36.72,36.72,0,0,0,11.93-1.76,26.4,26.4,0,0,0,8.32-4.38c2.12-1.74,4.07-3.45,5.86-5.15a25.36,25.36,0,0,1,6.28-4.3,17.84,17.84,0,0,1,8-1.77,12.74,12.74,0,0,1,9.24,3.81,12.39,12.39,0,0,1,3.88,9.18q0,12.14-14.68,22.72t-38.81,10.59q-24.71,0-41.28-15.74t-16.58-37.75V510.79q0-22,16.58-37.68t41.28-15.66q24.71,0,41.21,15.66t16.52,37.68Zm-34.58-11.58v-7.34q0-10.86-6.64-17.71a23.35,23.35,0,0,0-33,0q-6.64,6.85-6.63,17.71v7.34Z" transform="translate(-6.6 -7)" style="fill:#0b5569"/></g><g style="isolation:isolate"><path d="M725.37,696.64H744.2l28.74-49.41q2.71-5.34,8.06-5.35a9.22,9.22,0,0,1,6.53,2.33,7.51,7.51,0,0,1,2.49,5.73,8.87,8.87,0,0,1-.22,2,9.69,9.69,0,0,1-.61,1.84c-.26.58-.5,1.05-.7,1.4s-.45.74-.75,1.18a3.32,3.32,0,0,0-.43.75l-27.78,46.61,30.49,52q2.63,4.29,2.63,7.18a7.61,7.61,0,0,1-2.45,5.74,9.05,9.05,0,0,1-6.49,2.32q-5,0-8.06-5.34L744.2,712.76H725.37V763a7.58,7.58,0,0,1-2.46,5.74,10.21,10.21,0,0,1-13,0,7.58,7.58,0,0,1-2.46-5.74v-113a7.56,7.56,0,0,1,2.46-5.73,10.18,10.18,0,0,1,13,0,7.56,7.56,0,0,1,2.46,5.73Z" transform="translate(-6.6 -7)" style="fill:#0b5569"/><path d="M869,762.08a8.09,8.09,0,0,1-8.06,8.07,7.42,7.42,0,0,1-6.83-3.6,12.48,12.48,0,0,1-1.32-3.59h-.87a42.73,42.73,0,0,1-5.87,4.56A30.45,30.45,0,0,1,829.45,772q-10.79,0-18.84-8.28a27.16,27.16,0,0,1-8.06-19.59,26,26,0,0,1,8.63-19.66q8.63-8.12,21.86-8.11h19.71V710a16.22,16.22,0,0,0-17-17,17.13,17.13,0,0,0-14.36,7.18,7.48,7.48,0,0,0-.66.88c-.32.47-.54.77-.66.92l-.65.79c-.33.38-.56.64-.71.79s-.38.35-.7.61a5.19,5.19,0,0,1-.83.57c-.23.12-.51.25-.83.39a3.94,3.94,0,0,1-1,.31,6.76,6.76,0,0,1-1.14.09q-7.19,0-7.18-7.19a16.15,16.15,0,0,1,.35-3.24l.52-1.23q2.64-5.68,10-10.47t17.82-4.77q14.55,0,23.88,8.89T869,710Zm-16.21-31.36H833.92a15.61,15.61,0,0,0-11,3.94,12.42,12.42,0,0,0-4.29,9.46,12.55,12.55,0,0,0,4.29,9.51,15.23,15.23,0,0,0,10.78,4,27.09,27.09,0,0,0,14-4,21.44,21.44,0,0,0,5-4.11Z" transform="translate(-6.6 -7)" style="fill:#0b5569"/><path d="M907.42,762.08a8.06,8.06,0,0,1-16.12,0V688.49a8.09,8.09,0,0,1,8.06-8.06A7.28,7.28,0,0,1,906,684a21.11,21.11,0,0,1,1.4,3.6h1a19,19,0,0,1,4.82-4.47A28.72,28.72,0,0,1,929,678.68q11.65,0,20.2,9.07T957.71,710v52a8.06,8.06,0,0,1-16.12,0V710a16.48,16.48,0,0,0-4.78-12.26,18.37,18.37,0,0,0-24.61,0A16.48,16.48,0,0,0,907.42,710Z" transform="translate(-6.6 -7)" style="fill:#0b5569"/><path d="M994.42,754v.87h35a8.14,8.14,0,0,1,5.65,2.19,6.38,6.38,0,0,1,0,10,8.14,8.14,0,0,1-5.65,2.19H980.05a8.14,8.14,0,0,1-5.65-2.19,6.59,6.59,0,0,1-2.41-5,9.65,9.65,0,0,1,1.23-4.81l1.49-2.37,39.42-58.26v-1H981.89a8.16,8.16,0,0,1-5.74-2.24,6.29,6.29,0,0,1,0-9.9,8.15,8.15,0,0,1,5.74-2.23h46.61a8.14,8.14,0,0,1,5.65,2.19,6.58,6.58,0,0,1,2.41,5,10.14,10.14,0,0,1-1.4,5.08l-1.23,2.11Z" transform="translate(-6.6 -7)" style="fill:#0b5569"/><path d="M1067.92,762.08a8.06,8.06,0,0,1-16.12,0V651.78a7.91,7.91,0,0,1,2.37-5.74,7.93,7.93,0,0,1,11.39,0,7.9,7.9,0,0,1,2.36,5.74Z" transform="translate(-6.6 -7)" style="fill:#0b5569"/><path d="M1104.72,740.53a16.34,16.34,0,0,0,5,12.36q4.95,4.73,13,4.73a20.94,20.94,0,0,0,8-1.4,15.78,15.78,0,0,0,5.35-3.38c1.28-1.31,2.45-2.63,3.5-3.94a20.31,20.31,0,0,1,3.38-3.37,6.27,6.27,0,0,1,4-1.41q7.19,0,7.19,7.19t-9.29,13.93q-9.29,6.75-22.08,6.75-15.33,0-24.75-8.9t-9.42-22.56V710q0-13.66,9.42-22.51t24.75-8.85q15.33,0,24.71,8.85t9.37,22.51v13.5a7.67,7.67,0,0,1-2.41,5.69,7.89,7.89,0,0,1-5.74,2.37h-43.89Zm35.83-23.3V710q0-7.62-4.9-12.3t-13-4.69q-8.06,0-13,4.73a16.19,16.19,0,0,0-5,12.26v7.19Z" transform="translate(-6.6 -7)" style="fill:#0b5569"/><path d="M1192.38,658.75a9.48,9.48,0,0,1-7,2.85,9.61,9.61,0,0,1-7-2.85,9.4,9.4,0,0,1-2.89-7,9.87,9.87,0,0,1,9.9-9.9,9.43,9.43,0,0,1,7,2.89,9.66,9.66,0,0,1,2.84,7A9.51,9.51,0,0,1,1192.38,658.75Zm1.09,103.33a8.07,8.07,0,0,1-8.06,8.07,7.91,7.91,0,0,1-5.74-2.37,7.72,7.72,0,0,1-2.41-5.7V688.49a7.69,7.69,0,0,1,2.41-5.69,7.91,7.91,0,0,1,5.74-2.37,8.07,8.07,0,0,1,8.06,8.06Z" transform="translate(-6.6 -7)" style="fill:#0b5569"/></g></svg>