<svg xmlns="http://www.w3.org/2000/svg" viewBox="0 0 378.14 150.43">
  <defs>
    <style>
      .a,.b,.c{fill:none;}.a{stroke:#93c01f;}.a,.b{stroke-width:16px;}.b{stroke:#f3d500;}.c{stroke:#1d69aa;stroke-width:14px;}
    </style>
  </defs>
  <path class="a" d="M429,68a147.28,147.28,0,0,0-208.41,0" transform="translate(-66.66 -0.8)"/>
  <path class="b" d="M286.66,68A147.28,147.28,0,0,0,78.25,68" transform="translate(-66.66 -0.8)"/>
  <path class="c" d="M151.56,16.16c71,59.57,173,54.72,228-10.86" transform="translate(-66.66 -0.8)"/>
  <path d="M90.25,84.79h6.52v23.42h11.49v5.48h-18Z" transform="translate(-66.66 -0.8)"/>
  <path d="M131.2,107c0,2.75.09,5,.17,6.73h-5.66l-.3-3h-.13a7.46,7.46,0,0,1-6.56,3.44c-4.29,0-7.37-2.66-7.37-9.14V92.73h6.51V104c0,3,1,4.89,3.31,4.89a3.47,3.47,0,0,0,3.26-2.27,3.54,3.54,0,0,0,.25-1.42V92.73h6.52Z" transform="translate(-66.66 -0.8)"/>
  <path d="M156.76,83.25v24.18c0,2.36.08,4.85.17,6.26h-5.79l-.26-3h-.13a7.32,7.32,0,0,1-6.56,3.52c-5,0-9-4.25-9-10.77,0-7.07,4.38-11.19,9.39-11.19,2.62,0,4.59,1,5.53,2.36h.09V83.25Zm-6.52,18.35a5.62,5.62,0,0,0-.09-1.2,3.91,3.91,0,0,0-3.81-3.17c-3,0-4.5,2.66-4.5,6,0,3.56,1.75,5.79,4.46,5.79a3.86,3.86,0,0,0,3.81-3.13,8.13,8.13,0,0,0,.13-1.5Z" transform="translate(-66.66 -0.8)"/>
  <path d="M166.49,92.73l1.72,8.61c.39,2.15.81,4.46,1.16,6.87h.13c.38-2.41,1-4.76,1.5-6.82l2.23-8.66h5.14l2.1,8.36c.6,2.4,1.16,4.71,1.55,7.12h.08c.3-2.36.73-4.76,1.24-7.17l1.76-8.31h6.39l-6.43,21H179l-2-7.33a61.76,61.76,0,0,1-1.37-6.56h-.09a53.42,53.42,0,0,1-1.33,6.52l-2.1,7.37H166l-6.13-21Z" transform="translate(-66.66 -0.8)"/>
  <path d="M201.27,86.9a3.24,3.24,0,0,1-3.51,3.25,3.26,3.26,0,1,1,3.51-3.25Zm-6.73,26.79v-21h6.52v21Z" transform="translate(-66.66 -0.8)"/>
  <path d="M226.14,110.65c0,4-.81,7.33-3.21,9.43s-5.41,2.57-8.49,2.57a16.79,16.79,0,0,1-7.55-1.58l1.29-5a12.61,12.61,0,0,0,6.08,1.59c3.09,0,5.45-1.63,5.45-5.53v-1.33h-.09a6.75,6.75,0,0,1-5.66,2.7c-5.18,0-8.87-4.2-8.87-10.2,0-6.78,4.33-11.07,9.52-11.07a6.26,6.26,0,0,1,5.74,3h.09l.21-2.53h5.66c-.08,1.37-.17,3.13-.17,6.26Zm-6.52-9.39a6,6,0,0,0-.12-1.2A3.58,3.58,0,0,0,216,97.19c-2.4,0-4.29,2.14-4.29,6,0,3.13,1.55,5.57,4.25,5.57a3.57,3.57,0,0,0,3.47-2.62,6,6,0,0,0,.21-1.75Z" transform="translate(-66.66 -0.8)"/>
  <path d="M252.3,90.88v9.35h9v4h-9v9.47h-4.2v-9.47h-9v-4h9V90.88Z" transform="translate(-66.66 -0.8)"/>
  <path d="M274.52,84.79H281v23.42h11.49v5.48h-18Z" transform="translate(-66.66 -0.8)"/>
  <path d="M315.47,107c0,2.75.08,5,.17,6.73H310l-.3-3h-.13a7.47,7.47,0,0,1-6.56,3.44c-4.29,0-7.38-2.66-7.38-9.14V92.73h6.52V104c0,3,1,4.89,3.3,4.89a3.45,3.45,0,0,0,3.26-2.27,3.53,3.53,0,0,0,.26-1.42V92.73h6.52Z" transform="translate(-66.66 -0.8)"/>
  <path d="M341,83.25v24.18c0,2.36.08,4.85.17,6.26h-5.79l-.26-3H335a7.33,7.33,0,0,1-6.56,3.52c-5,0-9-4.25-9-10.77,0-7.07,4.37-11.19,9.39-11.19,2.62,0,4.59,1,5.53,2.36h.09V83.25Zm-6.52,18.35a5.62,5.62,0,0,0-.09-1.2,3.91,3.91,0,0,0-3.81-3.17c-3,0-4.51,2.66-4.51,6,0,3.56,1.76,5.79,4.46,5.79a3.87,3.87,0,0,0,3.82-3.13,9.1,9.1,0,0,0,.13-1.5Z" transform="translate(-66.66 -0.8)"/>
  <path d="M350.76,92.73l1.72,8.61c.38,2.15.81,4.46,1.15,6.87h.13c.39-2.41,1-4.76,1.5-6.82l2.23-8.66h5.15l2.1,8.36c.6,2.4,1.16,4.71,1.54,7.12h.09c.3-2.36.73-4.76,1.24-7.17l1.76-8.31h6.39l-6.43,21h-6.09l-2-7.33a61.61,61.61,0,0,1-1.38-6.56h-.08a57.51,57.51,0,0,1-1.33,6.52l-2.1,7.37h-6.13l-6.13-21Z" transform="translate(-66.66 -0.8)"/>
  <path d="M385.54,86.9A3.24,3.24,0,0,1,382,90.15a3.2,3.2,0,0,1-3.38-3.25,3.46,3.46,0,0,1,6.9,0Zm-6.73,26.79v-21h6.51v21Z" transform="translate(-66.66 -0.8)"/>
  <path d="M410.41,110.65c0,4-.82,7.33-3.22,9.43s-5.4,2.57-8.49,2.57a16.74,16.74,0,0,1-7.54-1.58l1.28-5a12.65,12.65,0,0,0,6.09,1.59c3.09,0,5.45-1.63,5.45-5.53v-1.33h-.09a6.77,6.77,0,0,1-5.66,2.7c-5.19,0-8.87-4.2-8.87-10.2,0-6.78,4.33-11.07,9.52-11.07a6.26,6.26,0,0,1,5.74,3h.09l.21-2.53h5.66c-.08,1.37-.17,3.13-.17,6.26Zm-6.52-9.39a5.38,5.38,0,0,0-.13-1.2,3.56,3.56,0,0,0-3.51-2.87c-2.4,0-4.29,2.14-4.29,6,0,3.13,1.54,5.57,4.24,5.57a3.57,3.57,0,0,0,3.48-2.62,6,6,0,0,0,.21-1.75Z" transform="translate(-66.66 -0.8)"/>
  <path d="M66.66,130.23a22,22,0,0,1,3.83-.31,6.2,6.2,0,0,1,4.34,1.34,4.57,4.57,0,0,1,1.35,3.39A4.88,4.88,0,0,1,75,138.1a6.28,6.28,0,0,1-4.73,1.78,6.5,6.5,0,0,1-1.6-.15v6.48h-2Zm2,7.8a6.33,6.33,0,0,0,1.65.17c2.41,0,3.87-1.25,3.87-3.43s-1.46-3.2-3.64-3.2a8.31,8.31,0,0,0-1.88.17Z" transform="translate(-66.66 -0.8)"/>
  <path d="M86,143.43a19.37,19.37,0,0,0,.17,2.78H84.34l-.16-1.46h-.07a4.07,4.07,0,0,1-3.39,1.73,3.23,3.23,0,0,1-3.39-3.34c0-2.81,2.38-4.34,6.67-4.32v-.24a2.33,2.33,0,0,0-2.52-2.66,5.2,5.2,0,0,0-2.92.86l-.45-1.41a6.91,6.91,0,0,1,3.66-1c3.4,0,4.22,2.42,4.22,4.73Zm-1.94-3.14c-2.21,0-4.71.36-4.71,2.61a1.82,1.82,0,0,0,1.88,2A2.81,2.81,0,0,0,84,143a2.47,2.47,0,0,0,.1-.67Z" transform="translate(-66.66 -0.8)"/>
  <path d="M89.25,138.22c0-1.37,0-2.54-.09-3.62h1.77l.09,2.3h.07a3.37,3.37,0,0,1,3.09-2.54,3.12,3.12,0,0,1,.55,0v2A2.84,2.84,0,0,0,91.34,139a6.11,6.11,0,0,0-.07,1v6.19h-2Z" transform="translate(-66.66 -0.8)"/>
  <path d="M99.73,131.81v2.79h2.89v1.61H99.73v6.26c0,1.44.39,2.26,1.52,2.26a3.49,3.49,0,0,0,1.17-.15l.09,1.61a5.38,5.38,0,0,1-1.79.29,2.82,2.82,0,0,1-2.18-.89,4.7,4.7,0,0,1-.78-3.05v-6.33H96V134.6h1.72v-2.16Z" transform="translate(-66.66 -0.8)"/>
  <path d="M116.75,145.5a13.7,13.7,0,0,1-4.77.88,7.74,7.74,0,0,1-5.78-2.13,8.57,8.57,0,0,1-2.16-6c0-4.82,3.19-8.35,8.37-8.35a9.43,9.43,0,0,1,3.88.74l-.5,1.71a7.38,7.38,0,0,0-3.42-.7c-3.76,0-6.22,2.45-6.22,6.51s2.34,6.52,6,6.52a6.28,6.28,0,0,0,2.66-.43V139.4h-3.12v-1.68h5.09Z" transform="translate(-66.66 -0.8)"/>
  <path d="M124.57,137.74c0-1.22,0-2.18-.09-3.14h1.76l.1,1.89h.06a3.83,3.83,0,0,1,3.51-2.13,3.29,3.29,0,0,1,3.12,2.33h.05a4.42,4.42,0,0,1,1.26-1.52,3.65,3.65,0,0,1,2.43-.81c1.49,0,3.67,1,3.67,5v6.81h-2v-6.55c0-2.25-.8-3.57-2.41-3.57a2.67,2.67,0,0,0-2.41,1.89,3.81,3.81,0,0,0-.16,1.06v7.17h-2v-7c0-1.84-.78-3.16-2.32-3.16a2.8,2.8,0,0,0-2.5,2.11,3.05,3.05,0,0,0-.16,1v7h-2Z" transform="translate(-66.66 -0.8)"/>
  <path d="M143.7,129.17h2v7.3h.05a4.06,4.06,0,0,1,3.78-2.11c2.78,0,4.7,2.4,4.7,5.9,0,4.16-2.52,6.22-5,6.22a4,4,0,0,1-3.73-2.16h-.05l-.11,1.89h-1.72c0-.79.09-2,.09-3Zm2,12.39a3.25,3.25,0,0,0,.09.77,3.13,3.13,0,0,0,3,2.47c2.13,0,3.37-1.8,3.37-4.47,0-2.32-1.14-4.32-3.32-4.32a3.27,3.27,0,0,0-3.05,2.6,3.34,3.34,0,0,0-.12.88Z" transform="translate(-66.66 -0.8)"/>
  <path d="M156.82,130.28a16.52,16.52,0,0,1,3.64-.36,6.1,6.1,0,0,1,4.22,1.17A3.49,3.49,0,0,1,166,134a3.81,3.81,0,0,1-2.62,3.55v.07a4.08,4.08,0,0,1,3.19,4,4.36,4.36,0,0,1-1.33,3.24c-1,1-2.8,1.51-5.32,1.51a23.28,23.28,0,0,1-3.09-.19Zm2,6.62h1.81c2.09,0,3.33-1.17,3.33-2.73,0-1.88-1.36-2.64-3.37-2.64a8.44,8.44,0,0,0-1.77.14Zm0,7.73a10.46,10.46,0,0,0,1.67.1c2.07,0,4-.8,4-3.15,0-2.18-1.81-3.12-4-3.12h-1.65Z" transform="translate(-66.66 -0.8)"/>
  <path d="M173.85,143.67a6.57,6.57,0,0,0,3.56,1.06c2,0,3.23-1.13,3.23-2.76s-.82-2.38-2.91-3.2c-2.52-1-4.08-2.35-4.08-4.6,0-2.52,2-4.4,5-4.4a6.61,6.61,0,0,1,3.39.8l-.55,1.7a5.52,5.52,0,0,0-2.91-.77c-2.11,0-2.91,1.32-2.91,2.43,0,1.51.94,2.25,3.07,3.12,2.61,1,3.92,2.37,3.92,4.75s-1.74,4.68-5.39,4.68a7.64,7.64,0,0,1-3.94-1.06Z" transform="translate(-66.66 -0.8)"/>
  <path d="M187.71,131.81v2.79h2.89v1.61h-2.89v6.26c0,1.44.39,2.26,1.51,2.26a3.49,3.49,0,0,0,1.17-.15l.09,1.61a5.38,5.38,0,0,1-1.79.29,2.8,2.8,0,0,1-2.17-.89,4.64,4.64,0,0,1-.78-3.05v-6.33H184V134.6h1.72v-2.16Z" transform="translate(-66.66 -0.8)"/>
  <path d="M193.85,140.79c.05,2.86,1.77,4,3.81,4a6.84,6.84,0,0,0,3.07-.6l.37,1.51a8.61,8.61,0,0,1-3.71.75c-3.42,0-5.46-2.38-5.46-5.88s2-6.24,5.2-6.24c3.65,0,4.59,3.31,4.59,5.45a5,5,0,0,1-.07,1Zm5.92-1.51c0-1.32-.53-3.41-2.8-3.41-2.06,0-2.93,1.94-3.09,3.41Z" transform="translate(-66.66 -0.8)"/>
  <path d="M213.51,143c0,1.23,0,2.28.09,3.19h-1.79l-.11-1.89h0a4.13,4.13,0,0,1-3.67,2.16c-1.74,0-3.83-1-3.83-5.09V134.6h2V141c0,2.2.66,3.72,2.48,3.72a2.93,2.93,0,0,0,2.66-1.95,3.13,3.13,0,0,0,.18-1.08v-7.1h2Z" transform="translate(-66.66 -0.8)"/>
  <path d="M218,140.79c.05,2.86,1.77,4,3.81,4a6.87,6.87,0,0,0,3.07-.6l.37,1.51a8.63,8.63,0,0,1-3.72.75c-3.41,0-5.46-2.38-5.46-5.88s2-6.24,5.21-6.24c3.65,0,4.59,3.31,4.59,5.45a5.91,5.91,0,0,1-.07,1Zm5.92-1.51c0-1.32-.53-3.41-2.8-3.41-2.06,0-2.94,1.94-3.1,3.41Z" transform="translate(-66.66 -0.8)"/>
  <path d="M228.35,138.22c0-1.37,0-2.54-.09-3.62H230l.09,2.3h.07a3.39,3.39,0,0,1,3.1-2.54,3.31,3.31,0,0,1,.55,0v2a2.85,2.85,0,0,0-3.4,2.64,7.59,7.59,0,0,0-.06,1v6.19h-2Z" transform="translate(-66.66 -0.8)"/>
  <path d="M235.94,129.17h2v7.3h0a4.06,4.06,0,0,1,3.78-2.11c2.78,0,4.7,2.4,4.7,5.9,0,4.16-2.52,6.22-5,6.22a4,4,0,0,1-3.73-2.16h0l-.11,1.89h-1.72c0-.79.09-2,.09-3Zm2,12.39a3.25,3.25,0,0,0,.09.77,3.13,3.13,0,0,0,3,2.47c2.14,0,3.37-1.8,3.37-4.47,0-2.32-1.14-4.32-3.32-4.32a3.28,3.28,0,0,0-3,2.6,3.34,3.34,0,0,0-.12.88Z" transform="translate(-66.66 -0.8)"/>
  <path d="M250.11,140.79c0,2.86,1.77,4,3.81,4a6.87,6.87,0,0,0,3.07-.6l.37,1.51a8.63,8.63,0,0,1-3.72.75c-3.41,0-5.46-2.38-5.46-5.88s2-6.24,5.21-6.24c3.65,0,4.59,3.31,4.59,5.45a5.91,5.91,0,0,1-.07,1Zm5.92-1.51c0-1.32-.53-3.41-2.8-3.41-2.06,0-2.94,1.94-3.1,3.41Z" transform="translate(-66.66 -0.8)"/>
  <path d="M260.48,138.22c0-1.37,0-2.54-.1-3.62h1.77l.09,2.3h.07a3.39,3.39,0,0,1,3.1-2.54,3.31,3.31,0,0,1,.55,0v2a2.94,2.94,0,0,0-.69-.05,2.87,2.87,0,0,0-2.71,2.69,7.59,7.59,0,0,0-.06,1v6.19h-2Z" transform="translate(-66.66 -0.8)"/>
  <path d="M275.66,143.43a21.06,21.06,0,0,0,.16,2.78H274l-.16-1.46h-.07a4.08,4.08,0,0,1-3.39,1.73,3.24,3.24,0,0,1-3.4-3.34c0-2.81,2.39-4.34,6.68-4.32v-.24a2.34,2.34,0,0,0-2.53-2.66,5.19,5.19,0,0,0-2.91.86l-.46-1.41a7,7,0,0,1,3.67-1c3.39,0,4.22,2.42,4.22,4.73Zm-2-3.14c-2.2,0-4.7.36-4.7,2.61a1.81,1.81,0,0,0,1.88,2,2.81,2.81,0,0,0,2.73-1.95,2.43,2.43,0,0,0,.09-.67Z" transform="translate(-66.66 -0.8)"/>
  <path d="M281.26,131.81v2.79h2.89v1.61h-2.89v6.26c0,1.44.39,2.26,1.51,2.26a3.49,3.49,0,0,0,1.17-.15l.09,1.61a5.38,5.38,0,0,1-1.79.29,2.82,2.82,0,0,1-2.18-.89,4.7,4.7,0,0,1-.78-3.05v-6.33h-1.72V134.6h1.72v-2.16Z" transform="translate(-66.66 -0.8)"/>
  <path d="M295.71,143c0,1.23,0,2.28.09,3.19H294l-.12-1.89h0a4.14,4.14,0,0,1-3.67,2.16c-1.75,0-3.83-1-3.83-5.09V134.6h2V141c0,2.2.66,3.72,2.47,3.72a3,3,0,0,0,2.85-3v-7.1h2Z" transform="translate(-66.66 -0.8)"/>
  <path d="M299.05,137.74c0-1.22,0-2.18-.09-3.14h1.79l.12,1.92h0a4.09,4.09,0,0,1,3.67-2.16c1.54,0,3.92,1,3.92,4.94v6.91h-2v-6.69c0-1.87-.66-3.43-2.56-3.43a2.94,2.94,0,0,0-2.71,2.16,3.17,3.17,0,0,0-.14,1v7h-2Z" transform="translate(-66.66 -0.8)"/>
  <path d="M321.28,144.51c0,2.69-.53,4.3-1.59,5.33a5.93,5.93,0,0,1-4.06,1.39,6.87,6.87,0,0,1-3.69-1l.51-1.63a5.86,5.86,0,0,0,3.25.94c2.07,0,3.58-1.13,3.58-4.08v-1.28h0a3.92,3.92,0,0,1-3.54,1.95c-2.75,0-4.72-2.45-4.72-5.67,0-3.93,2.45-6.14,5-6.14a3.67,3.67,0,0,1,3.46,2h.05l.07-1.75h1.79c-.07.81-.09,1.77-.09,3.17Zm-2-5.33a2.63,2.63,0,0,0-.12-.93,2.9,2.9,0,0,0-2.82-2.26c-1.92,0-3.3,1.7-3.3,4.39,0,2.28,1.12,4.18,3.28,4.18a2.94,2.94,0,0,0,2.8-2.16,4,4,0,0,0,.16-1.13Z" transform="translate(-66.66 -0.8)"/>
  <path d="M324.33,144.08a5.55,5.55,0,0,0,2.68.81c1.44,0,2.13-.74,2.13-1.72s-.57-1.54-2-2.12c-2-.76-3-1.89-3-3.28,0-1.88,1.47-3.41,3.83-3.41a5,5,0,0,1,2.71.72l-.48,1.53a4.26,4.26,0,0,0-2.27-.69,1.63,1.63,0,0,0-1.84,1.58c0,1,.64,1.39,2.09,2,1.9.75,2.91,1.76,2.91,3.48,0,2.07-1.54,3.51-4.13,3.51a6.13,6.13,0,0,1-3.12-.82Z" transform="translate(-66.66 -0.8)"/>
  <path d="M343.18,144.51c0,2.69-.53,4.3-1.59,5.33a5.92,5.92,0,0,1-4,1.39,6.9,6.9,0,0,1-3.7-1l.51-1.63a5.86,5.86,0,0,0,3.25.94c2.07,0,3.58-1.13,3.58-4.08v-1.28h0a3.91,3.91,0,0,1-3.54,1.95c-2.75,0-4.72-2.45-4.72-5.67,0-3.93,2.45-6.14,5-6.14a3.7,3.7,0,0,1,3.47,2h0l.07-1.75h1.79c-.07.81-.09,1.77-.09,3.17Zm-2-5.33a2.63,2.63,0,0,0-.12-.93,2.9,2.9,0,0,0-2.82-2.26c-1.92,0-3.3,1.7-3.3,4.39,0,2.28,1.12,4.18,3.28,4.18a2.93,2.93,0,0,0,2.8-2.16,4,4,0,0,0,.16-1.13Z" transform="translate(-66.66 -0.8)"/>
  <path d="M347.63,140.79c0,2.86,1.76,4,3.8,4a6.92,6.92,0,0,0,3.08-.6l.36,1.51a8.61,8.61,0,0,1-3.71.75c-3.42,0-5.46-2.38-5.46-5.88s2-6.24,5.21-6.24c3.64,0,4.58,3.31,4.58,5.45a5,5,0,0,1-.07,1Zm5.91-1.51c0-1.32-.52-3.41-2.79-3.41-2.07,0-2.94,1.94-3.1,3.41Z" transform="translate(-66.66 -0.8)"/>
  <path d="M357.72,144.08a5.55,5.55,0,0,0,2.68.81c1.45,0,2.13-.74,2.13-1.72s-.57-1.54-2-2.12c-2-.76-2.95-1.89-2.95-3.28,0-1.88,1.46-3.41,3.83-3.41a5,5,0,0,1,2.7.72l-.48,1.53a4.26,4.26,0,0,0-2.27-.69,1.63,1.63,0,0,0-1.84,1.58c0,1,.65,1.39,2.09,2,1.9.75,2.91,1.76,2.91,3.48,0,2.07-1.53,3.51-4.12,3.51a6.1,6.1,0,0,1-3.12-.82Z" transform="translate(-66.66 -0.8)"/>
  <path d="M368.2,140.79c.05,2.86,1.76,4,3.81,4a6.87,6.87,0,0,0,3.07-.6l.37,1.51a8.63,8.63,0,0,1-3.72.75c-3.42,0-5.46-2.38-5.46-5.88s2-6.24,5.21-6.24c3.64,0,4.59,3.31,4.59,5.45a5.91,5.91,0,0,1-.07,1Zm5.92-1.51c0-1.32-.53-3.41-2.8-3.41-2.07,0-2.94,1.94-3.1,3.41Z" transform="translate(-66.66 -0.8)"/>
  <path d="M378.56,129.17h2v17h-2Z" transform="translate(-66.66 -0.8)"/>
  <path d="M384,129.17h2v17h-2Z" transform="translate(-66.66 -0.8)"/>
  <path d="M389.12,144.08a5.51,5.51,0,0,0,2.68.81c1.44,0,2.13-.74,2.13-1.72s-.57-1.54-2-2.12c-2-.76-3-1.89-3-3.28,0-1.88,1.47-3.41,3.83-3.41a5,5,0,0,1,2.71.72l-.48,1.53a4.26,4.26,0,0,0-2.27-.69,1.63,1.63,0,0,0-1.84,1.58c0,1,.64,1.39,2.09,2,1.9.75,2.91,1.76,2.91,3.48,0,2.07-1.54,3.51-4.13,3.51a6.13,6.13,0,0,1-3.12-.82Z" transform="translate(-66.66 -0.8)"/>
  <path d="M406.38,145.81a7.51,7.51,0,0,1-3.18.67c-3.35,0-5.53-2.38-5.53-5.93s2.34-6.19,6-6.19a6.14,6.14,0,0,1,2.8.62l-.46,1.61a4.81,4.81,0,0,0-2.34-.55c-2.54,0-3.92,2-3.92,4.39,0,2.69,1.65,4.34,3.85,4.34a5.48,5.48,0,0,0,2.48-.55Z" transform="translate(-66.66 -0.8)"/>
  <path d="M408.75,129.17h2v7.28h.05a4,4,0,0,1,1.44-1.52,4,4,0,0,1,2.07-.57c1.49,0,3.88,1,3.88,4.94v6.91h-2v-6.67c0-1.87-.67-3.43-2.57-3.43a3,3,0,0,0-2.71,2.09,2.91,2.91,0,0,0-.14,1v7h-2Z" transform="translate(-66.66 -0.8)"/>
  <path d="M429.27,143.43a21.06,21.06,0,0,0,.16,2.78h-1.81l-.16-1.46h-.07a4.08,4.08,0,0,1-3.39,1.73,3.24,3.24,0,0,1-3.4-3.34c0-2.81,2.39-4.34,6.68-4.32v-.24a2.34,2.34,0,0,0-2.53-2.66,5.19,5.19,0,0,0-2.91.86l-.46-1.41a7,7,0,0,1,3.67-1c3.4,0,4.22,2.42,4.22,4.73Zm-1.95-3.14c-2.2,0-4.7.36-4.7,2.61a1.81,1.81,0,0,0,1.88,2,2.81,2.81,0,0,0,2.73-1.95,2.43,2.43,0,0,0,.09-.67Z" transform="translate(-66.66 -0.8)"/>
  <path d="M432.74,146.21v-10H431.2V134.6h1.54v-.55A5.73,5.73,0,0,1,434,130a3.77,3.77,0,0,1,2.71-1.08,4.38,4.38,0,0,1,1.72.34l-.28,1.63a2.74,2.74,0,0,0-1.28-.27c-1.72,0-2.16,1.56-2.16,3.36v.63h2.69v1.61h-2.69v10Z" transform="translate(-66.66 -0.8)"/>
  <path d="M441.91,131.81v2.79h2.89v1.61h-2.89v6.26c0,1.44.39,2.26,1.51,2.26a3.49,3.49,0,0,0,1.17-.15l.09,1.61a5.36,5.36,0,0,1-1.78.29,2.82,2.82,0,0,1-2.18-.89,4.7,4.7,0,0,1-.78-3.05v-6.33h-1.72V134.6h1.72v-2.16Z" transform="translate(-66.66 -0.8)"/>
</svg>
